<!-- (187.2*2)=374.4 -->
<svg xmlns="http://www.w3.org/2000/svg" viewbox="0 0 1440 187.2" width="1440" height="374.4" style="opacity: 1; filter: grayscale(0);">
    <!-- add 1.5em (90px) to offset x to get final width -->
    <text x="0em" y="1em" font-size="60" transform="rotate(17 37.5 36)">🍧</text>
    <!-- <text x="1.5em" y="2.3em" font-size="60" transform="rotate(17 127.5 114)">💊</text> -->
    <text x="3em" y="1em" font-size="60" transform="rotate(17 217.5 36)">🍷</text>
    <!-- <text x="4.5em" y="2.3em" font-size="60" transform="rotate(17 307.5 114)">🍒</text> -->
    <text x="6em" y="1em" font-size="60" transform="rotate(17 397.5 36)">💉</text>
    <!-- <text x="7.5em" y="2.3em" font-size="60" transform="rotate(17 487.5 114)">🍞</text> -->
    <text x="9em" y="1em" font-size="60" transform="rotate(17 577.5 36)">🍫</text>
    <!-- <text x="10.5em" y="2.3em" font-size="60" transform="rotate(17 667.5 114)">🍊</text> -->
    <text x="12em" y="1em" font-size="60" transform="rotate(17 757.5 36)">🐶</text>
    <!-- <text x="13.5em" y="2.3em" font-size="60" transform="rotate(17 847.5 114)">🥤</text> -->
    <text x="15em" y="1em" font-size="60" transform="rotate(17 937.5 36)">🍌</text>
    <!-- <text x="16.5em" y="2.3em" font-size="60" transform="rotate(17 1027.5 114)">🧀</text> -->
    <text x="18em" y="1em" font-size="60" transform="rotate(17 1117.5 36)">🌶️</text>
    <!-- <text x="19.5em" y="2.3em" font-size="60" transform="rotate(17 1207.5 114)">🍇</text> -->
    <text x="21em" y="1em" font-size="60" transform="rotate(17 1297.5 36)">🛠️</text>
    <!-- <text x="22.5em" y="2.3em" font-size="60" transform="rotate(17 1387.5 114)">🦊</text> -->
</svg>