<svg width="970" height="302" viewBox="0 0 970 302" fill="none" xmlns="http://www.w3.org/2000/svg">
<path fill-rule="evenodd" clip-rule="evenodd" d="M137 54V13H12V289H56V171H172V130H56V54H137ZM13 14H136V53H55V131H171V170H55V288H13V14Z" fill="black"/>
<path fill-rule="evenodd" clip-rule="evenodd" d="M149 67V1L10 1.00021C8.17306 1.00021 5.70444 1.51826 3.67623 2.7613C1.6319 4.01422 0 6.03237 0 9V294C0 295.152 0.692327 296.886 1.86302 298.317C3.04548 299.762 4.79944 301 7 301H68V183H177C177.479 183 178.148 182.811 178.849 182.505C179.565 182.192 180.367 181.734 181.121 181.144C182.615 179.974 184 178.22 184 176V125C184 123.015 182.597 121.261 180.99 120.039C179.38 118.815 177.4 118 176 118H68V67H149ZM10 2.00021L148 2V66H67V119H176C177.1 119 178.87 119.685 180.385 120.836C181.903 121.989 183 123.485 183 125V176C183 177.78 181.885 179.276 180.504 180.356C179.821 180.891 179.092 181.308 178.448 181.589C177.789 181.876 177.271 182 177 182H67L67 300H7C5.20056 300 3.70452 298.988 2.63698 297.683C1.55767 296.364 1 294.848 1 294V9C1 6.46763 2.3681 4.73588 4.19877 3.61391C6.04556 2.48206 8.32694 2.00021 10 2.00021Z" fill="black"/>
<path fill-rule="evenodd" clip-rule="evenodd" d="M148 2L10 2.00021C8.32694 2.00021 6.04556 2.48206 4.19877 3.61391C2.3681 4.73588 1 6.46763 1 9V294C1 294.848 1.55767 296.364 2.63698 297.683C3.70452 298.988 5.20056 300 7 300H67L67 182H177C177.271 182 177.789 181.876 178.448 181.589C179.092 181.308 179.821 180.891 180.504 180.356C181.885 179.276 183 177.78 183 176V125C183 123.485 181.903 121.989 180.385 120.836C178.87 119.685 177.1 119 176 119H67V66H148V2ZM137 54V13H12V289H56V171H172V130H56V54H137Z" fill="black"/>
<path d="M136 14H13V288H55V170H171V131H55V53H136V14Z" fill="#F62AA0"/>
<path fill-rule="evenodd" clip-rule="evenodd" d="M258 13H214V181H258V13ZM215 14H257V180H215V14Z" fill="black"/>
<path fill-rule="evenodd" clip-rule="evenodd" d="M210 1C208.073 1 206.078 2.0898 204.584 3.58395C203.09 5.07809 202 7.07279 202 9V193H270V9C270 7.31893 268.905 5.32842 267.564 3.79575C266.883 3.01786 266.114 2.32854 265.341 1.82985C264.578 1.33738 263.763 1 263 1H210ZM203 9C203 7.42721 203.91 5.67191 205.291 4.29105C206.672 2.9102 208.427 2 210 2H263C263.487 2 264.109 2.22512 264.799 2.67015C265.479 3.10896 266.179 3.73214 266.811 4.45425C268.095 5.92158 269 7.68107 269 9V192H203V9Z" fill="black"/>
<path fill-rule="evenodd" clip-rule="evenodd" d="M205.291 4.29105C203.91 5.67191 203 7.42721 203 9V192H269V9C269 7.68107 268.095 5.92158 266.811 4.45425C266.179 3.73214 265.479 3.10896 264.799 2.67015C264.109 2.22512 263.487 2 263 2H210C208.427 2 206.672 2.9102 205.291 4.29105ZM258 13H214V181H258V13Z" fill="black"/>
<path d="M257 14H215V180H257V14Z" fill="#B8EE30"/>
<path fill-rule="evenodd" clip-rule="evenodd" d="M362 247H214V289H362V247ZM215 288V248H361V288H215Z" fill="black"/>
<path fill-rule="evenodd" clip-rule="evenodd" d="M366 235H202V294C202 296.141 202.812 297.926 204.52 299.156C206.203 300.367 208.698 301 212 301H367C368.941 301 370.69 299.897 371.933 298.523C373.17 297.156 374 295.417 374 294V243C374 241.054 372.766 239.057 371.221 237.577C369.679 236.099 367.686 235 366 235ZM203 236H366C367.314 236 369.071 236.901 370.529 238.298C371.984 239.693 373 241.446 373 243V294C373 295.083 372.33 296.594 371.192 297.852C370.06 299.103 368.559 300 367 300H212C208.802 300 206.547 299.383 205.105 298.344C203.688 297.324 203 295.859 203 294V236Z" fill="black"/>
<path fill-rule="evenodd" clip-rule="evenodd" d="M366 236H203V294C203 295.859 203.688 297.324 205.105 298.344C206.547 299.383 208.802 300 212 300H367C368.559 300 370.06 299.103 371.192 297.852C372.33 296.594 373 295.083 373 294V243C373 241.446 371.984 239.693 370.529 238.298C369.071 236.901 367.314 236 366 236ZM362 247H214V289H362V247Z" fill="black"/>
<path d="M215 248V288H361V248H215Z" fill="#B8EE30"/>
<path fill-rule="evenodd" clip-rule="evenodd" d="M511.966 20.8195L510 15.576L508.034 20.8195L508.032 20.8244L405.029 286.831L404.306 289H448.86L449.472 287.165L449.474 287.158L508.472 118.165L508.474 118.158L509.5 115.081L510.526 118.158L570.526 287.158L570.529 287.167L571.14 289H615.694L614.971 286.831L511.968 20.8244L511.966 20.8195ZM508.968 21.1756L510 18.424L511.032 21.1756L511.034 21.1806L614.029 287.169L614.306 288H571.86L571.474 286.842L571.471 286.833L511.474 117.842L511.471 117.833L509.5 111.919L507.528 117.835L507.526 117.842L448.528 286.835L448.526 286.842L448.14 288H405.694L405.971 287.169L508.966 21.1806L508.968 21.1756Z" fill="black"/>
<path fill-rule="evenodd" clip-rule="evenodd" d="M509.5 0C505.789 0 501.109 2.63093 499.036 7.81429L499.034 7.82005L391.04 287.803L391.037 287.812C390.234 289.695 390.122 292.939 390.959 295.707C391.799 298.486 393.676 301 397 301H454C457.336 301 458.958 298.202 459.947 296.224L459.962 296.194L508.973 154.163L508.974 154.158L509.5 152.581L510.026 154.158L510.028 154.166L560.032 296.176L560.036 296.186C560.57 297.522 561.5 298.714 562.56 299.576C563.612 300.43 564.845 301 566 301H623C625.284 301 627.416 299.038 628.637 296.531C629.872 293.996 630.279 290.718 628.961 287.806L519.966 7.81861L519.964 7.8143C517.891 2.63095 513.211 0 509.5 0ZM499.964 8.18568L499.965 8.18312C501.892 3.3682 506.212 1 509.5 1C512.788 1 517.107 3.36813 519.035 8.18288L519.036 8.1857L628.039 288.194L628.045 288.207C629.22 290.791 628.876 293.758 627.738 296.094C626.584 298.462 624.716 300 623 300H566C565.155 300 564.138 299.57 563.19 298.799C562.253 298.038 561.434 296.984 560.968 295.824L560.964 295.814L510.974 153.842L510.972 153.834L509.5 149.419L508.027 153.837L508.026 153.842L459.038 295.806C458.028 297.82 456.652 300 454 300H397C394.324 300 392.701 298.014 391.916 295.418C391.129 292.816 391.266 289.815 391.96 288.197L391.963 288.189L499.964 8.18568Z" fill="black"/>
<path fill-rule="evenodd" clip-rule="evenodd" d="M499.965 8.18312L499.964 8.18568L391.963 288.189L391.96 288.197C391.266 289.815 391.129 292.816 391.916 295.418C392.701 298.014 394.324 300 397 300H454C456.652 300 458.028 297.82 459.038 295.806L508.026 153.842L508.027 153.837L509.5 149.419L510.972 153.834L510.974 153.842L560.964 295.814L560.968 295.824C561.434 296.984 562.253 298.038 563.19 298.799C564.138 299.57 565.155 300 566 300H623C624.716 300 626.584 298.462 627.738 296.094C628.876 293.758 629.22 290.791 628.045 288.207L628.039 288.194L519.036 8.1857L519.035 8.18288C517.107 3.36813 512.788 1 509.5 1C506.212 1 501.892 3.3682 499.965 8.18312ZM511.966 20.8195L510 15.576L508.034 20.8195L508.032 20.8244L405.029 286.831L404.306 289H448.86L449.472 287.165L449.474 287.158L508.472 118.165L508.474 118.158L509.5 115.081L510.526 118.158L570.526 287.158L570.529 287.167L571.14 289H615.694L614.971 286.831L511.968 20.8244L511.966 20.8195Z" fill="black"/>
<path d="M510 18.424L508.968 21.1756L508.966 21.1806L405.971 287.169L405.694 288H448.14L448.526 286.842L448.528 286.835L507.526 117.842L507.528 117.835L509.5 111.919L511.471 117.833L511.474 117.842L571.471 286.833L571.474 286.842L571.86 288H614.306L614.029 287.169L511.034 21.1806L511.032 21.1756L510 18.424Z" fill="#F9D030"/>
<path fill-rule="evenodd" clip-rule="evenodd" d="M592.33 14H548.761L550.036 17.1857L649.533 276.179L649.538 276.19L653.536 285.9L656.967 276.18L656.971 276.166L735.96 71.197L737.758 67H695.161L694.032 69.8235L655.03 179.829L655.029 179.833L653.5 184.037L651.97 179.829L593.966 17.8171L592.33 14ZM550.967 16.8207L550.239 15H591.67L593.034 18.1829L651.029 180.169L653.5 186.963L655.97 180.171L655.971 180.167L694.968 70.1765L695.839 68H736.242L735.037 70.8116L656.031 275.827L653.464 283.1L650.467 275.821L650.462 275.81L550.967 16.8207Z" fill="black"/>
<path fill-rule="evenodd" clip-rule="evenodd" d="M544.5 1C541.799 1 539.761 1.61164 538.249 2.60565C536.736 3.60045 535.785 4.95482 535.223 6.37869C534.661 7.79776 534.484 9.2882 534.508 10.5798C534.532 11.8635 534.757 12.9872 535.034 13.6824L535.036 13.6857L643.537 296.188L643.54 296.197C645.146 299.944 649.254 301.75 653.25 301.75C657.246 301.75 661.354 299.944 662.96 296.197L662.963 296.189L755.464 57.1857L755.466 57.1805L756.739 54H686.14L685.529 55.8329L685.526 55.8419L655.025 141.843L653.5 146.8L651.975 141.843L606.471 13.8325L606.47 13.8291C606.296 13.3513 606.121 12.859 605.944 12.3586C605.111 10.0129 604.216 7.48952 603.06 5.44184C601.66 2.95998 599.781 1 597 1H544.5ZM535.964 13.3143C535.742 12.7593 535.53 11.7596 535.508 10.5609C535.485 9.3681 535.651 8.01478 536.152 6.74635C536.652 5.4827 537.483 4.30582 538.798 3.44123C540.114 2.57586 541.951 2 544.5 2H597C599.219 2 600.84 3.54002 602.19 5.93316C603.298 7.89767 604.157 10.3178 604.99 12.662L604.991 12.6637C605.171 13.1705 605.35 13.6743 605.529 14.1686L605.53 14.1709L651.025 142.157L653.5 150.2L655.975 142.157L686.471 56.1671L686.474 56.1581L686.86 55H755.261L754.536 56.8143L754.534 56.8195L662.04 295.803L662.037 295.811C660.64 299.059 657.001 300.75 653.25 300.75C649.499 300.75 645.86 299.059 644.463 295.812L644.46 295.803L535.967 13.3207L535.964 13.3143Z" fill="black"/>
<path fill-rule="evenodd" clip-rule="evenodd" d="M535.508 10.5609C535.53 11.7596 535.742 12.7593 535.964 13.3143L535.967 13.3207L644.46 295.803L644.463 295.812C645.86 299.059 649.499 300.75 653.25 300.75C657.001 300.75 660.64 299.059 662.037 295.811L662.04 295.803L754.534 56.8195L754.536 56.8143L755.261 55H686.86L686.474 56.1581L686.471 56.1671L655.975 142.157L653.5 150.2L651.025 142.157L605.53 14.1709L605.529 14.1686C605.35 13.6743 605.171 13.1705 604.991 12.6637L604.99 12.662C604.157 10.3178 603.298 7.89767 602.19 5.93316C600.84 3.54002 599.219 2 597 2H544.5C541.951 2 540.114 2.57586 538.798 3.44123C537.483 4.30582 536.652 5.4827 536.152 6.74635C535.651 8.01478 535.485 9.3681 535.508 10.5609ZM592.33 14H548.761L550.036 17.1857L649.533 276.179L649.538 276.19L653.536 285.9L656.967 276.18L656.971 276.166L735.96 71.197L737.758 67H695.161L694.032 69.8235L655.03 179.829L655.029 179.833L653.5 184.037L651.97 179.829L593.966 17.8171L592.33 14Z" fill="black"/>
<path d="M550.239 15L550.967 16.8207L650.462 275.81L650.467 275.821L653.464 283.1L656.031 275.827L735.037 70.8116L736.242 68H695.839L694.968 70.1765L655.971 180.167L655.97 180.171L653.5 186.963L651.029 180.169L593.034 18.1829L591.67 15H550.239Z" fill="#26DFD0"/>
<path fill-rule="evenodd" clip-rule="evenodd" d="M871 14H771V54H868C882.254 54 892.965 58.8926 900.127 66.1939C907.296 73.5008 910.938 83.2484 911 93.0032C911.062 102.758 907.543 112.503 900.408 119.807C893.278 127.106 882.507 132 868 132H771V289H814V173H854.675L856.543 177.203L856.546 177.21L906.54 285.197L906.546 285.21L908.17 289H954.258L952.457 284.796L899.457 170.797L899.453 170.789L897.676 166.79L904.168 164.471L904.171 164.47C942.186 150.623 958.026 112.987 952.306 78.8549C946.581 44.693 919.261 14 871 14ZM772 53V15H871C918.739 15 945.669 45.307 951.319 79.0201C956.974 112.763 941.314 149.876 903.83 163.53L903.829 163.53L896.324 166.21L898.543 171.203L898.547 171.211L951.54 285.197L951.547 285.211L952.742 288H908.83L907.46 284.803L907.457 284.796L857.457 176.797L857.454 176.79L855.325 172H813V288H772V133H868C882.743 133 893.784 128.019 901.123 120.506C908.457 112.997 912.063 102.992 912 92.9968C911.937 83.0016 908.204 72.9992 900.841 65.4936C893.473 57.9824 882.496 53 868 53H772Z" fill="black"/>
<path fill-rule="evenodd" clip-rule="evenodd" d="M768 1C764.844 1 762.578 2.3225 761.112 4.12166C759.659 5.90527 759 8.14415 759 10L759 66.0021L868.028 66C878.154 66.0063 885.702 69.4044 890.718 74.4568C895.739 79.5141 898.252 86.2587 898.25 93.0094C898.248 99.7601 895.73 106.503 890.704 111.557C885.684 116.607 878.13 120 868 120H759L759 294C759 295.941 760.103 297.69 761.477 298.933C762.844 300.17 764.583 301 766 301H819C820.594 301 822.561 300.474 824.14 299.487C825.718 298.5 827 296.99 827 295L827 185H846.161L847.041 187.198L896.049 293.217L896.053 293.224C896.155 293.428 896.271 293.678 896.404 293.963C896.886 295 897.576 296.484 898.534 297.795C899.762 299.476 901.518 301 904 301H961C964.22 301 966.621 299.115 967.94 296.675C969.251 294.249 969.53 291.211 968.457 288.797L917.459 177.802L915.661 173.307L918.158 172.474L918.168 172.471L918.178 172.467C953.969 158.857 971.267 115.948 965.119 76.5483C962.042 56.8273 953.089 37.9358 937.6 23.973C922.107 10.0057 900.109 1.0007 871 1.0007L768 1ZM868.029 65L760 65.002V10C760 8.35585 760.591 6.34473 761.888 4.75334C763.172 3.1775 765.156 2 768 2L871 2.0007C899.891 2.0007 921.643 10.9331 936.931 24.7157C952.224 38.5027 961.083 57.1736 964.131 76.7024C970.232 115.798 953.035 158.136 917.832 171.529L914.339 172.693L916.54 178.197L967.543 289.203L967.544 289.206C968.47 291.292 968.248 294.002 967.06 296.2C965.879 298.385 963.78 300 961 300H904C901.982 300 900.488 298.774 899.341 297.205C898.449 295.984 897.819 294.632 897.337 293.596C897.197 293.295 897.069 293.02 896.951 292.783L896.947 292.776L847.959 186.802L846.839 184H826L826 295C826 296.51 825.032 297.75 823.61 298.638C822.189 299.526 820.406 300 819 300H766C764.917 300 763.406 299.33 762.148 298.192C760.897 297.06 760 295.559 760 294L760 121H868C878.365 121 886.184 117.522 891.413 112.262C896.638 107.008 899.248 100.006 899.25 93.0098C899.252 86.0136 896.648 79.0098 891.428 73.7523C886.203 68.4897 878.389 65.0065 868.029 65Z" fill="black"/>
<path fill-rule="evenodd" clip-rule="evenodd" d="M760 65.002L868.029 65C878.389 65.0065 886.203 68.4897 891.428 73.7523C896.648 79.0098 899.252 86.0136 899.25 93.0098C899.248 100.006 896.638 107.008 891.413 112.262C886.184 117.522 878.365 121 868 121H760L760 294C760 295.559 760.897 297.06 762.148 298.192C763.406 299.33 764.917 300 766 300H819C820.406 300 822.189 299.526 823.61 298.638C825.032 297.75 826 296.51 826 295L826 184H846.839L847.959 186.802L896.947 292.776L896.951 292.783C897.069 293.02 897.197 293.295 897.337 293.596C897.819 294.632 898.449 295.984 899.341 297.205C900.488 298.774 901.982 300 904 300H961C963.78 300 965.879 298.385 967.06 296.2C968.248 294.002 968.47 291.292 967.544 289.206L967.543 289.203L916.54 178.197L914.339 172.693L917.832 171.529C953.035 158.136 970.232 115.798 964.131 76.7024C961.083 57.1736 952.224 38.5027 936.931 24.7157C921.643 10.9331 899.891 2.0007 871 2.0007L768 2C765.156 2 763.172 3.1775 761.888 4.75334C760.591 6.34473 760 8.35585 760 10V65.002ZM871 14H771V54H868C882.254 54 892.965 58.8926 900.127 66.1939C907.296 73.5008 910.938 83.2484 911 93.0032C911.062 102.758 907.543 112.503 900.408 119.807C893.278 127.106 882.507 132 868 132H771V289H814V173H854.675L856.543 177.203L856.546 177.21L906.54 285.197L906.546 285.21L908.17 289H954.258L952.457 284.796L899.457 170.797L899.453 170.789L897.676 166.79L904.168 164.471L904.171 164.47C942.186 150.623 958.026 112.987 952.306 78.8549C946.581 44.693 919.261 14 871 14Z" fill="black"/>
<path d="M772 15V53H868C882.496 53 893.473 57.9824 900.841 65.4936C908.204 72.9992 911.937 83.0016 912 92.9968C912.063 102.992 908.457 112.997 901.123 120.506C893.784 128.019 882.743 133 868 133H772V288H813V172H855.325L857.454 176.79L857.457 176.797L907.457 284.796L907.46 284.803L908.83 288H952.742L951.547 285.211L951.54 285.197L898.547 171.211L898.543 171.203L896.324 166.21L903.829 163.53L903.83 163.53C941.314 149.876 956.974 112.763 951.319 79.0201C945.669 45.307 918.739 15 871 15H772Z" fill="#26DFD0"/>
</svg>
