<svg width="777" height="127" viewBox="0 0 777 127" fill="none" xmlns="http://www.w3.org/2000/svg">
    <path d="M20.8125 51.1875V90.9375H0V2.25H20.8125V44.5625L46.6875 2.25H70.125L42.125 48L70.3125 90.9375H46.8125L20.8125 51.1875ZM86.75 64.25C86.75 71.125 89.2917 74.6458 94.375 74.8125H95.5C100.583 74.6458 103.125 71.125 103.125 64.25V27H123.125V64.25C123.125 82.375 113.917 91.9375 95.5 92.9375H94.375C75.9583 91.9375 66.75 82.375 66.75 64.25V27H86.75V64.25ZM159.062 24.8125V43.6875C158.021 42.9792 156.667 42.5833 155 42.5H153.875C148.792 42.7083 146.25 46.25 146.25 53.125V91H126.25V53.125C126.25 34.9167 135.458 25.3542 153.875 24.4375H155C156.375 24.4792 157.729 24.6042 159.062 24.8125ZM198.875 93.0625C192.5 93.0625 186.479 91.5625 180.812 88.5625C175.146 85.5625 170.646 81.4583 167.312 76.25C163.938 71 162.25 65.125 162.25 58.625C162.25 53.75 163.229 49.2083 165.188 45C167.146 40.7917 169.833 37.1458 173.25 34.0625C176.708 30.9375 180.646 28.5417 185.062 26.875C189.562 25.2083 194.167 24.375 198.875 24.375C203.625 24.375 208.25 25.2083 212.75 26.875C217.125 28.4583 221.062 30.8333 224.562 34C228.021 37.1667 230.708 40.8333 232.625 45C234.583 49.2083 235.562 53.75 235.562 58.625C235.562 63.5833 234.604 68.125 232.688 72.25C230.771 76.4167 228.062 80.1042 224.562 83.3125C221.021 86.4792 217.083 88.875 212.75 90.5C208.375 92.2083 203.75 93.0625 198.875 93.0625ZM182.188 58.625C182.188 63.0833 183.854 66.9167 187.188 70.125C190.479 73.3333 194.375 74.9375 198.875 74.9375C203.417 74.9375 207.333 73.3333 210.625 70.125C213.958 66.9167 215.625 63.0833 215.625 58.625C215.625 55.7083 214.854 53.0208 213.312 50.5625C211.771 48.1042 209.708 46.1458 207.125 44.6875C204.583 43.2292 201.833 42.5 198.875 42.5C196 42.5 193.271 43.2292 190.688 44.6875C188.104 46.1458 186.042 48.1042 184.5 50.5625C182.958 53.0208 182.188 55.7083 182.188 58.625ZM316.188 64.0625L330.5 78.875C327.667 81.9583 324.5 84.5833 321 86.75C314.333 90.875 307.042 92.9375 299.125 92.9375C291.25 92.9375 283.958 90.875 277.25 86.75C270.5 82.5833 265.167 76.9792 261.25 69.9375C257.333 62.8542 255.375 55.0833 255.375 46.625C255.375 38.125 257.333 30.3333 261.25 23.25C265.167 16.2083 270.5 10.5833 277.25 6.375C283.958 2.25 291.25 0.1875 299.125 0.1875C307.042 0.1875 314.333 2.25 321 6.375C324.5 8.54167 327.625 11.125 330.375 14.125L316.062 28.9375C314.271 26.8125 312.542 25.2083 310.875 24.125C307.208 21.6667 303.292 20.4375 299.125 20.4375C294.958 20.4375 291.042 21.6667 287.375 24.125C283.792 26.5833 280.938 29.8333 278.812 33.875C276.729 37.9583 275.688 42.2083 275.688 46.625C275.688 51.0417 276.75 55.2917 278.875 59.375C281 63.4167 283.854 66.6667 287.438 69.125C291.021 71.5833 294.917 72.8125 299.125 72.8125C303.333 72.8125 307.229 71.5833 310.812 69.125C312.729 67.8333 314.521 66.1458 316.188 64.0625ZM366 93.0625C359.625 93.0625 353.604 91.5625 347.938 88.5625C342.271 85.5625 337.771 81.4583 334.438 76.25C331.062 71 329.375 65.125 329.375 58.625C329.375 53.75 330.354 49.2083 332.312 45C334.271 40.7917 336.958 37.1458 340.375 34.0625C343.833 30.9375 347.771 28.5417 352.188 26.875C356.688 25.2083 361.292 24.375 366 24.375C370.75 24.375 375.375 25.2083 379.875 26.875C384.25 28.4583 388.188 30.8333 391.688 34C395.146 37.1667 397.833 40.8333 399.75 45C401.708 49.2083 402.688 53.75 402.688 58.625C402.688 63.5833 401.729 68.125 399.812 72.25C397.896 76.4167 395.188 80.1042 391.688 83.3125C388.146 86.4792 384.208 88.875 379.875 90.5C375.5 92.2083 370.875 93.0625 366 93.0625ZM349.312 58.625C349.312 63.0833 350.979 66.9167 354.312 70.125C357.604 73.3333 361.5 74.9375 366 74.9375C370.542 74.9375 374.458 73.3333 377.75 70.125C381.083 66.9167 382.75 63.0833 382.75 58.625C382.75 55.7083 381.979 53.0208 380.438 50.5625C378.896 48.1042 376.833 46.1458 374.25 44.6875C371.708 43.2292 368.958 42.5 366 42.5C363.125 42.5 360.396 43.2292 357.812 44.6875C355.229 46.1458 353.167 48.1042 351.625 50.5625C350.083 53.0208 349.312 55.7083 349.312 58.625ZM462.5 51.6875V91.0625H442.438V51.6875C442.104 45.8125 439.583 42.7917 434.875 42.625H433.75C428.667 42.7917 426.125 46.3125 426.125 53.1875V91.0625H406.125V53.1875C406.125 35.0625 415.333 25.5 433.75 24.5H434.875C442.208 24.9167 448.083 26.6667 452.5 29.75C456.875 26.6667 462.729 24.9167 470.062 24.5H471.188C489.604 25.5 498.812 35.0625 498.812 53.1875V91.0625H478.812V53.1875C478.812 46.3125 476.271 42.7917 471.188 42.625H470.062C465.354 42.7917 462.833 45.8125 462.5 51.6875ZM526.938 47.3125C523.604 50.5208 521.938 54.3542 521.938 58.8125C521.938 61.7708 522.708 64.4375 524.25 66.8125C525.792 69.2708 527.854 71.2292 530.438 72.6875C532.979 74.1458 535.708 74.875 538.625 74.875C541.542 74.875 544.292 74.1458 546.875 72.6875C549.458 71.2292 551.521 69.2708 553.062 66.8125C554.604 64.3958 555.375 61.7292 555.375 58.8125C555.375 54.3958 553.708 50.5625 550.375 47.3125C547.083 44.1042 543.167 42.5 538.625 42.5C534.125 42.5 530.229 44.1042 526.938 47.3125ZM502 115.562V58.375C502.042 52 503.729 46.2708 507.062 41.1875C510.396 35.9792 514.896 31.8958 520.562 28.9375C526.229 25.9375 532.25 24.4375 538.625 24.4375C543.5 24.4375 548.125 25.2917 552.5 27C556.833 28.5833 560.771 30.9792 564.312 34.1875C567.812 37.3958 570.521 41.0625 572.438 45.1875C574.354 49.3125 575.312 53.8542 575.312 58.8125C575.312 63.6458 574.333 68.1667 572.375 72.375C570.458 76.5417 567.771 80.1875 564.312 83.3125C560.854 86.4792 556.917 88.875 552.5 90.5C548.042 92.125 543.417 92.9375 538.625 92.9375C533.917 92.9375 529.312 92.125 524.812 90.5L523.375 89.875L521.938 89.25V115.625L502 115.562ZM606.938 44.6875C604.354 46.1458 602.292 48.1042 600.75 50.5625C599.208 53.0208 598.438 55.7083 598.438 58.625C598.438 63.0417 600.104 66.8542 603.438 70.0625C606.729 73.2292 610.625 74.8125 615.125 74.8125C619.667 74.8125 623.583 73.2292 626.875 70.0625C630.208 66.8542 631.875 63.0417 631.875 58.625C631.875 55.7083 631.104 53.0208 629.562 50.5625C628.021 48.1042 625.958 46.1458 623.375 44.6875C620.833 43.2708 618.083 42.5625 615.125 42.5625C612.25 42.5625 609.521 43.2708 606.938 44.6875ZM631.938 91V89.125C630.604 89.7083 629.625 90.1042 629 90.3125C624.583 92.0208 619.958 92.875 615.125 92.875C608.75 92.875 602.729 91.3958 597.062 88.4375C591.396 85.4375 586.896 81.3542 583.562 76.1875C580.188 70.9375 578.5 65.0833 578.5 58.625C578.5 53.75 579.479 49.2083 581.438 45C583.396 40.8333 586.083 37.2083 589.5 34.125C592.875 31.0417 596.792 28.6875 601.25 27.0625C605.708 25.3542 610.333 24.5 615.125 24.5C619.875 24.5 624.5 25.3333 629 27C633.5 28.6667 637.417 31.0417 640.75 34.125C644.25 37.2917 646.958 40.9167 648.875 45C650.833 49.2083 651.812 53.75 651.812 58.625L651.75 91.1875L631.938 91ZM683.75 42.5625H682.625C677.542 42.7708 675 46.3125 675 53.1875V91H655V53.1875C655 34.9792 664.208 25.4167 682.625 24.5H683.75C702.167 25.4167 711.375 34.9792 711.375 53.1875V91H691.375V53.1875C691.375 46.3125 688.833 42.7708 683.75 42.5625ZM756.375 98.375V89.8125C752.583 91.3542 749.083 92.2708 745.875 92.5625C726.167 94.6458 716.312 85.25 716.312 64.375V27.0625H736.312V63C736.312 66.7917 737.188 69.6667 738.938 71.625C740.688 73.5417 743.146 74.5 746.312 74.5C749.354 74.5 751.792 73.5208 753.625 71.5625C755.375 69.6042 756.25 66.75 756.25 63V27.125L776.25 27.0625V98.5625C776.25 106.312 773.5 112.979 768 118.562C765.5 121.062 762.062 123.104 757.688 124.688C753.729 126.104 749.75 126.812 745.75 126.812H742.438C733.521 126.646 726.375 123.896 721 118.562C717.5 114.979 715.333 111.771 714.5 108.938L732.562 98.375C732.729 101.542 733.958 104.208 736.25 106.375C738.542 108.542 741.271 109.625 744.438 109.625C746.896 109.625 749.146 108.917 751.188 107.5C753.104 106.208 754.542 104.417 755.5 102.125L755.562 101.938L755.688 101.625L755.812 101.188L755.938 100.75C756.104 100.375 756.208 99.8958 756.25 99.3125C756.25 99.2292 756.271 99.125 756.312 99V98.375H756.375Z" fill="black"/>
</svg>
