<?xml version="1.0" encoding="utf-8"?>
<svg viewBox="371.244 313.93 1162.358 362.449" width="1162.358" height="362.449" style="enable-background:new 0 0 1920 1080;" xmlns="http://www.w3.org/2000/svg">
  <defs>
    <style type="text/css">
            .st0{fill:none;stroke:#000000;stroke-width:17;stroke-miterlimit:10;}
            .st1{display:none;}
            .st2{display:inline;fill-opacity:0.43;}
        </style>
  </defs>
  <g id="Layer_2" transform="matrix(0.9999999999999999, 0, 0, 0.9999999999999999, 0, 0)">
    <path class="st0" d="M540.18,324.18v60.55h-94.36v79.64h133.36c3.16,0,5.73,2.56,5.73,5.73v50.18c0,3.16-2.56,5.73-5.73,5.73 H445.82v141.82h-59.45c-3.61,0-6.55-2.93-6.55-6.55V326.09c0-1.05,0.85-1.91,1.91-1.91H540.18z" style="fill: rgb(246, 42, 160);"/>
    <path class="st0" d="M686.36,535.82H622V326.91c0-1.81,1.47-3.27,3.27-3.27h57.82c1.81,0,3.27,1.47,3.27,3.27V535.82z" style="fill: rgb(184, 238, 48);"/>
    <path class="st0" d="M806.64,667.82H627.18c-2.86,0-5.18-2.32-5.18-5.18v-59.73h184.64c2.86,0,5.18,2.32,5.18,5.18v54.55 C811.82,665.5,809.5,667.82,806.64,667.82z" style="fill: rgb(184, 238, 48);"/>
    <path class="st0" d="M987.18,326.78l130.1,332.71c1.57,4.01-1.39,8.33-5.69,8.33h-53.36c-3.17,0-5.99-1.99-7.06-4.97L982.8,472.55 l-65.56,188.57c-1.39,4.01-5.18,6.7-9.42,6.7h-53.7c-3.91,0-6.6-3.93-5.19-7.57l129.18-333.46 C979.72,322.66,985.57,322.65,987.18,326.78z" style="fill: rgb(249, 208, 48);"/>
    <path class="st0" d="M1084.49,323.68h-60.64c-2.29,0-3.86,2.3-3.03,4.43l129.71,335.84c1.45,3.76,6.77,3.77,8.24,0.01 l107.96-277.06h-66.55L1155,512.77l-67.51-186.98C1087.03,324.53,1085.83,323.68,1084.49,323.68z" style="fill: rgb(38, 223, 208);"/>
    <path class="st0" d="M1401.63,384.91c24.5,0,54.37,17.93,54.37,40.04c0,22.12-19.86,40.04-44.36,40.04h-4.33h-117.34v196.46 c0,2.94,2.38,5.32,5.32,5.32h54.49c2.94,0,5.32-2.38,5.32-5.32V528.73h38.18L1456,666.78h64.79c3.07,0,5.1-3.18,3.82-5.97 l-65.87-142.41c37.26-11.39,64.62-49.22,64.62-94.13c0-53.92-37.91-100.59-101.1-100.64l-126.21-0.95 c-3.36-0.03-6.09,2.69-6.09,6.05v56.55L1401.63,384.91z" style="fill: rgb(38, 223, 208);"/>
  </g>
  <g id="Layer_1" class="st1" transform="matrix(0.9999999999999999, 0, 0, 0.9999999999999999, 0, 0)">
    <path class="st2" d="M 1281.77 457.05 C 1284.65 457.05 1286.6299999999999 457.05 1288.61 457.05 C 1328.1 457.05 1367.59 457.14 1407.08 456.96000000000004 C 1413.02 456.93000000000006 1419.1 456.25000000000006 1424.87 454.87000000000006 C 1440.2299999999998 451.1700000000001 1448.11 441.07000000000005 1448.1399999999999 426.0300000000001 C 1448.1699999999998 410.61000000000007 1440.37 400.0200000000001 1425.09 396.37000000000006 C 1417.55 394.57000000000005 1409.6299999999999 393.69000000000005 1401.8799999999999 393.63000000000005 C 1364.06 393.36000000000007 1326.2299999999998 393.51000000000005 1288.4099999999999 393.51000000000005 C 1286.4399999999998 393.51000000000005 1284.4599999999998 393.51000000000005 1282.05 393.51000000000005 C 1281.94 391.49000000000007 1281.78 389.90000000000003 1281.78 388.30000000000007 C 1281.76 368.80000000000007 1281.75 349.31000000000006 1281.78 329.81000000000006 C 1281.79 319.50000000000006 1286.37 314.9700000000001 1296.78 314.9700000000001 C 1332.77 314.9600000000001 1368.76 314.9400000000001 1404.75 314.9800000000001 C 1427.6 315.01000000000005 1449.91 317.88000000000005 1471 327.43000000000006 C 1503.1 341.9800000000001 1521.96 366.74000000000007 1527.78 401.34000000000003 C 1531.31 422.31000000000006 1530.72 443.18000000000006 1524.05 463.57000000000005 C 1515.6299999999999 489.33000000000004 1498.6599999999999 507.68000000000006 1474.72 519.8800000000001 C 1473.1100000000001 520.7000000000002 1471.49 521.5100000000001 1469.33 522.6000000000001 C 1472.84 530.3300000000002 1476.22 537.8700000000001 1479.6899999999998 545.3700000000001 C 1496.6799999999998 582.0800000000002 1513.7499999999998 618.7600000000001 1530.6299999999999 655.5300000000001 C 1532.03 658.59 1532.9999999999998 662.2400000000001 1532.82 665.5500000000001 C 1532.5 671.61 1527.36 675.34 1519.9299999999998 675.45 C 1509.2699999999998 675.6 1498.6 675.5 1487.9399999999998 675.5 C 1479.7799999999997 675.5 1471.6 675.27 1463.4499999999998 675.56 C 1454.9499999999998 675.8599999999999 1449.5599999999997 672.51 1445.9399999999998 664.53 C 1427.2299999999998 623.29 1408.09 582.25 1389.2899999999997 541.06 C 1387.6499999999996 537.4699999999999 1385.8799999999997 536 1381.8899999999996 536.25 C 1375.9499999999996 536.62 1369.9699999999996 536.35 1363.2499999999995 536.35 C 1363.2499999999995 538.77 1363.2499999999995 540.69 1363.2499999999995 542.62 C 1363.2499999999995 581.78 1363.2499999999995 620.9300000000001 1363.2299999999996 660.09 C 1363.2199999999996 670.98 1358.7299999999996 675.46 1347.6699999999996 675.5 C 1330.6699999999996 675.56 1313.6799999999996 675.57 1296.6799999999996 675.5 C 1286.2999999999995 675.46 1281.7799999999995 670.87 1281.7799999999995 660.51 C 1281.7699999999995 594.53 1281.7699999999995 528.54 1281.7699999999995 462.56 C 1281.77 460.91 1281.77 459.29 1281.77 457.05 Z"/>
    <path class="st2" d="M 1447.02 513.7 C 1453.08 511.20000000000005 1458.34 509.19000000000005 1463.47 506.88000000000005 C 1487.9 495.86000000000007 1504.18 477.77000000000004 1510.45 451.46000000000004 C 1514.48 434.54 1514.32 417.42 1510.91 400.38000000000005 C 1505.5600000000002 373.69000000000005 1490.49 354.6 1465.8100000000002 343.05000000000007 C 1448.43 334.9200000000001 1429.9500000000003 331.6500000000001 1411.0000000000002 331.4700000000001 C 1375.0100000000002 331.12000000000006 1339.0100000000002 331.3300000000001 1303.0200000000002 331.3300000000001 C 1301.5600000000002 331.3300000000001 1300.1100000000001 331.5100000000001 1298.5100000000002 331.6200000000001 C 1298.5100000000002 346.8100000000001 1298.5100000000002 361.6900000000001 1298.5100000000002 377.0100000000001 C 1300.8400000000001 377.0100000000001 1302.8200000000002 377.0100000000001 1304.7900000000002 377.0100000000001 C 1337.2800000000002 377.0100000000001 1369.7800000000002 376.9100000000001 1402.2700000000002 377.0900000000001 C 1409.0700000000002 377.1300000000001 1415.9800000000002 377.5800000000001 1422.64 378.87000000000006 C 1460.8300000000002 386.2800000000001 1470.6100000000001 415.69000000000005 1461.3600000000001 443.6700000000001 C 1459.2400000000002 450.0800000000001 1454.2800000000002 456.1700000000001 1449.18 460.8300000000001 C 1439.01 470.1400000000001 1425.8500000000001 472.9100000000001 1412.52 473.0700000000001 C 1376.53 473.5000000000001 1340.53 473.3400000000001 1304.54 473.4100000000001 C 1302.59 473.4100000000001 1300.6299999999999 473.4100000000001 1298.56 473.4100000000001 C 1298.56 535.5500000000001 1298.56 597.08 1298.56 658.45 C 1314.87 658.45 1330.76 658.45 1347.2 658.45 C 1347.2 612.11 1347.2 566.21 1347.2 519.94 C 1361.74 519.94 1375.73 520.34 1389.68 519.7600000000001 C 1395.92 519.5000000000001 1398.5800000000002 521.7300000000001 1401.05 527.1800000000001 C 1420.23 569.49 1439.83 611.6100000000001 1459.1 653.8800000000001 C 1460.9099999999999 657.8400000000001 1463.03 659.1000000000001 1467.31 659.0100000000001 C 1481.1299999999999 658.7100000000002 1494.97 658.9100000000001 1508.8 658.8900000000001 C 1510.36 658.8900000000001 1511.93 658.7100000000002 1514.03 658.5800000000002 C 1491.57 609.99 1469.37 562.01 1447.02 513.7 Z"/>
    <path class="st2" d="M 982.83 497.32 C 977.9000000000001 511.38 973.46 524.04 969.0300000000001 536.7 C 954.0200000000001 579.58 938.94 622.44 924.07 665.37 C 921.7900000000001 671.96 917.61 675.35 910.86 675.38 C 891.37 675.47 871.87 675.66 852.39 675.25 C 841.77 675.03 837.39 667.59 841.22 657.7 C 883.9 547.51 926.58 437.31000000000006 969.27 327.12000000000006 C 969.63 326.19000000000005 970.0699999999999 325.2900000000001 970.38 324.3400000000001 C 972.36 318.4500000000001 976.4399999999999 315.30000000000007 982.64 315.12000000000006 C 988.65 314.95000000000005 992.8 318.06000000000006 995.3 324.4800000000001 C 1008.28 357.8300000000001 1021.2299999999999 391.19000000000005 1034.19 424.5400000000001 C 1063.92 501.0200000000001 1093.3700000000001 577.6100000000001 1123.6200000000001 653.8900000000001 C 1129.8100000000002 669.5100000000001 1121.97 676.1600000000001 1108.65 675.6400000000001 C 1091.8500000000001 674.9800000000001 1075 675.5100000000001 1058.18 675.4700000000001 C 1048.27 675.4500000000002 1045.3200000000002 673.3600000000001 1042 663.9900000000001 C 1023.36 611.4500000000002 1004.74 558.8900000000001 986.11 506.35000000000014 C 985.21 503.87 984.29 501.38 982.83 497.32 Z"/>
    <path class="st2" d="M 1107.51 658.79 C 1065.93 551.8199999999999 1024.6 445.47999999999996 982.81 337.97999999999996 C 941.1199999999999 445.59999999999997 899.9699999999999 551.8199999999999 858.52 658.81 C 861.14 658.81 862.76 658.81 864.38 658.81 C 877.38 658.81 890.38 658.6199999999999 903.37 658.92 C 907.6 659.02 909.36 657.5999999999999 910.72 653.68 C 933.89 587.05 957.22 520.4599999999999 980.52 453.87999999999994 C 981.04 452.38999999999993 981.72 450.94999999999993 982.72 448.5299999999999 C 983.72 450.7899999999999 984.39 452.0599999999999 984.87 453.3999999999999 C 995.57 483.49999999999994 1006.26 513.6099999999999 1016.9300000000001 543.7299999999999 C 1030.04 580.7499999999999 1043.1000000000001 617.7799999999999 1056.3 654.7599999999999 C 1056.86 656.3199999999998 1058.59 658.5999999999999 1059.8 658.6199999999999 C 1075.43 658.87 1091.06 658.79 1107.51 658.79 Z"/>
    <path class="st2" d="M 453.01 393.35 C 453.01 414.34000000000003 453.01 434.42 453.01 455.13 C 455.19 455.13 457.13 455.13 459.07 455.13 C 498.06 455.13 537.06 455.13 576.05 455.13 C 588.4499999999999 455.13 592.64 459.28 592.65 471.55 C 592.66 487.21000000000004 592.67 502.88 592.64 518.54 C 592.62 528.98 587.79 533.8299999999999 577.33 533.8399999999999 C 538 533.8699999999999 498.68000000000006 533.8499999999999 459.35 533.8499999999999 C 457.38 533.8499999999999 455.41 533.8499999999999 452.82000000000005 533.8499999999999 C 452.82000000000005 581.1199999999999 452.82000000000005 627.9899999999999 452.82000000000005 675.2199999999999 C 450.59000000000003 675.3299999999999 448.97 675.4799999999999 447.34000000000003 675.4799999999999 C 427.18 675.4999999999999 407.01000000000005 675.5099999999999 386.85 675.4799999999999 C 375.09000000000003 675.4599999999999 370.83000000000004 671.1999999999999 370.83000000000004 659.5999999999999 C 370.83000000000004 549.9499999999999 370.83000000000004 440.30999999999995 370.83000000000004 330.6599999999999 C 370.83000000000004 319.19999999999993 375.03000000000003 314.9599999999999 386.44000000000005 314.9599999999999 C 439.1 314.94999999999993 491.75000000000006 314.94999999999993 544.4100000000001 314.94999999999993 C 546.0600000000001 314.94999999999993 547.71 314.94999999999993 549.8100000000001 314.94999999999993 C 549.8100000000001 341.0899999999999 549.8100000000001 366.9599999999999 549.8100000000001 393.3499999999999 C 517.74 393.35 485.64 393.35 453.01 393.35 Z"/>
    <path class="st2" d="M 436.85 517.65 C 483.66 517.65 529.75 517.65 576.02 517.65 C 576.02 501.96999999999997 576.02 486.78 576.02 471.09999999999997 C 529.51 471.09999999999997 483.44 471.09999999999997 437.13 471.09999999999997 C 437.13 439.72999999999996 437.13 408.84999999999997 437.13 377.38 C 469.5 377.38 501.56 377.38 533.7 377.38 C 533.7 361.6 533.7 346.4 533.7 331.42 C 484.55000000000007 331.42 435.83000000000004 331.42 387.13000000000005 331.42 C 387.13000000000005 440.76 387.13000000000005 549.6800000000001 387.13000000000005 658.72 C 403.77000000000004 658.72 420.13000000000005 658.72 436.86000000000007 658.72 C 436.85 611.7 436.85 565.09 436.85 517.65 Z"/>
    <path class="st2" d="M 1155.39 489.17 C 1165.48 461.02000000000004 1175.14 434.08000000000004 1184.7900000000002 407.14 C 1187.7100000000003 398.99 1190.4800000000002 390.78 1193.66 382.74 C 1194.26 381.21000000000004 1196.48 379.31 1197.96 379.3 C 1223.95 379.09000000000003 1249.94 379.15000000000003 1275.93 379.17 C 1276.54 379.17 1277.15 379.36 1278.1000000000001 379.52000000000004 C 1277.6000000000001 381.17 1277.2700000000002 382.6 1276.7500000000002 383.95000000000005 C 1240.5300000000002 477.55000000000007 1204.3200000000002 571.1600000000001 1167.9100000000003 664.69 C 1166.5100000000002 668.2800000000001 1163.7200000000003 672.1600000000001 1160.4900000000002 674.0300000000001 C 1153.4100000000003 678.1400000000001 1145.8500000000001 674.3500000000001 1142.6600000000003 666.0600000000001 C 1119.7800000000002 606.5600000000001 1096.9100000000003 547.0500000000001 1074.0500000000004 487.55000000000007 C 1054.3500000000004 436.2800000000001 1034.6700000000003 385.00000000000006 1014.9600000000004 333.7300000000001 C 1010.4100000000004 321.9100000000001 1015.1500000000004 315.00000000000006 1027.9800000000005 314.9700000000001 C 1045.8100000000004 314.93000000000006 1063.6300000000006 314.9400000000001 1081.4600000000005 314.9700000000001 C 1090.8300000000004 314.99000000000007 1093.7100000000005 317.11000000000007 1096.8800000000006 325.9800000000001 C 1115.5800000000006 378.3300000000001 1134.2900000000006 430.68000000000006 1153.0100000000007 483.0300000000001 C 1153.61 484.71 1154.3 486.37 1155.39 489.17 Z"/>
    <path class="st2" d="M 1254.49 395.76 C 1251.72 395.76 1249.92 395.76 1248.11 395.76 C 1236.28 395.76 1224.4499999999998 395.98 1212.6299999999999 395.65 C 1207.9299999999998 395.52 1205.7099999999998 396.90999999999997 1204.08 401.52 C 1188.74 444.99 1173.12 488.37 1157.58 531.76 C 1157.02 533.33 1156.32 534.86 1155.25 537.46 C 1154.15 534.6700000000001 1153.51 533.1800000000001 1152.96 531.64 C 1129.6200000000001 466.46 1106.26 401.28999999999996 1083.04 336.07 C 1081.79 332.55 1080.27 331.13 1076.3799999999999 331.21 C 1063.2199999999998 331.46999999999997 1050.06 331.29999999999995 1036.8999999999999 331.32 C 1035.36 331.32 1033.81 331.52 1031.7099999999998 331.65999999999997 C 1072.86 438.71 1113.7299999999998 545.03 1155.11 652.66 C 1188.48 566.39 1221.34 481.46 1254.49 395.76 Z"/>
    <path class="st2" d="M 694.83 545.07 C 667.5500000000001 545.07 640.6400000000001 545.07 613.08 545.07 C 613.08 543.07 613.08 541.2900000000001 613.08 539.5100000000001 C 613.08 469.8700000000001 613.08 400.22000000000014 613.08 330.5800000000001 C 613.08 319.5600000000001 617.57 314.9700000000001 628.4000000000001 314.9500000000001 C 646.2300000000001 314.92000000000013 664.0600000000001 314.8800000000001 681.8800000000001 314.9800000000001 C 690.0500000000001 315.0200000000001 695.0500000000001 319.9200000000001 695.0600000000001 328.06000000000006 C 695.11 399.5400000000001 695.09 471.01000000000005 695.08 542.49 C 695.09 543.14 694.96 543.79 694.83 545.07 Z"/>
    <path class="st2" d="M 630.09 331.61 C 630.09 397.51 630.09 462.9 630.09 528.44 C 646.47 528.44 662.48 528.44 678.38 528.44 C 678.38 462.62000000000006 678.38 397.23 678.38 331.61 C 662.26 331.61 646.49 331.61 630.09 331.61 Z"/>
    <path class="st2" d="M 613.09 595.14 C 615.46 595.14 617.25 595.14 619.0400000000001 595.14 C 680.4900000000001 595.14 741.95 595.14 803.4000000000001 595.14 C 815.6300000000001 595.14 819.96 599.46 819.9700000000001 611.61 C 819.9800000000001 628.1 819.9900000000001 644.59 819.9600000000002 661.07 C 819.9400000000002 670.47 815.2800000000002 675.44 805.9700000000001 675.45 C 746.5100000000001 675.5200000000001 687.0600000000002 675.5300000000001 627.6000000000001 675.44 C 617.6300000000001 675.4300000000001 613.1100000000001 670.5100000000001 613.1000000000001 660.46 C 613.07 638.99 613.09 617.51 613.09 595.14 Z"/>
    <path class="st2" d="M 629.78 658.46 C 687.97 658.46 745.36 658.46 803.37 658.46 C 803.37 656.14 803.37 654.1800000000001 803.37 652.22 C 803.37 641.0600000000001 803.38 629.89 803.37 618.73 C 803.36 611.89 803.35 611.88 796.59 611.88 C 743.27 611.88 689.95 611.88 636.63 611.88 C 635.46 611.88 634.09 611.51 633.18 611.99 C 631.87 612.69 629.9399999999999 614 629.92 615.07 C 629.7 629.37 629.78 643.68 629.78 658.46 Z"/>
  </g>
</svg>