<?xml version="1.0" encoding="utf-8"?>
<!-- Generator: Adobe Illustrator 28.3.0, SVG Export Plug-In . SVG Version: 6.00 Build 0)  -->
<svg version="1.1" xmlns="http://www.w3.org/2000/svg" xmlns:xlink="http://www.w3.org/1999/xlink" x="0px" y="0px"
	 viewBox="0 0 1920 1080" style="enable-background:new 0 0 1920 1080;" xml:space="preserve">
<style type="text/css">
	.st0{fill:none;stroke:#000000;stroke-width:17;stroke-miterlimit:10;}
	.st1{display:none;}
	.st2{display:inline;fill-opacity:0.43;}
</style>
<g id="Layer_2">
	<path class="st0" d="M540.18,324.18v60.55h-94.36v79.64h133.36c3.16,0,5.73,2.56,5.73,5.73v50.18c0,3.16-2.56,5.73-5.73,5.73
		H445.82v141.82h-59.45c-3.61,0-6.55-2.93-6.55-6.55V326.09c0-1.05,0.85-1.91,1.91-1.91H540.18z"/>
	<path class="st0" d="M686.36,535.82H622V326.91c0-1.81,1.47-3.27,3.27-3.27h57.82c1.81,0,3.27,1.47,3.27,3.27V535.82z"/>
	<path class="st0" d="M806.64,667.82H627.18c-2.86,0-5.18-2.32-5.18-5.18v-59.73h184.64c2.86,0,5.18,2.32,5.18,5.18v54.55
		C811.82,665.5,809.5,667.82,806.64,667.82z"/>
	<path class="st0" d="M987.18,326.78l130.1,332.71c1.57,4.01-1.39,8.33-5.69,8.33h-53.36c-3.17,0-5.99-1.99-7.06-4.97L982.8,472.55
		l-65.56,188.57c-1.39,4.01-5.18,6.7-9.42,6.7h-53.7c-3.91,0-6.6-3.93-5.19-7.57l129.18-333.46
		C979.72,322.66,985.57,322.65,987.18,326.78z"/>
	<path class="st0" d="M1084.49,323.68h-60.64c-2.29,0-3.86,2.3-3.03,4.43l129.71,335.84c1.45,3.76,6.77,3.77,8.24,0.01
		l107.96-277.06h-66.55L1155,512.77l-67.51-186.98C1087.03,324.53,1085.83,323.68,1084.49,323.68z"/>
	<path class="st0" d="M1401.63,384.91c24.5,0,54.37,17.93,54.37,40.04c0,22.12-19.86,40.04-44.36,40.04h-4.33h-117.34v196.46
		c0,2.94,2.38,5.32,5.32,5.32h54.49c2.94,0,5.32-2.38,5.32-5.32V528.73h38.18L1456,666.78h64.79c3.07,0,5.1-3.18,3.82-5.97
		l-65.87-142.41c37.26-11.39,64.62-49.22,64.62-94.13c0-53.92-37.91-100.59-101.1-100.64l-126.21-0.95
		c-3.36-0.03-6.09,2.69-6.09,6.05v56.55L1401.63,384.91z"/>
</g>
<g id="Layer_1" class="st1">
	<path class="st2" d="M1281.77,457.05c2.88,0,4.86,0,6.84,0c39.49,0,78.98,0.09,118.47-0.09c5.94-0.03,12.02-0.71,17.79-2.09
		c15.36-3.7,23.24-13.8,23.27-28.84c0.03-15.42-7.77-26.01-23.05-29.66c-7.54-1.8-15.46-2.68-23.21-2.74
		c-37.82-0.27-75.65-0.12-113.47-0.12c-1.97,0-3.95,0-6.36,0c-0.11-2.02-0.27-3.61-0.27-5.21c-0.02-19.5-0.03-38.99,0-58.49
		c0.01-10.31,4.59-14.84,15-14.84c35.99-0.01,71.98-0.03,107.97,0.01c22.85,0.03,45.16,2.9,66.25,12.45
		c32.1,14.55,50.96,39.31,56.78,73.91c3.53,20.97,2.94,41.84-3.73,62.23c-8.42,25.76-25.39,44.11-49.33,56.31
		c-1.61,0.82-3.23,1.63-5.39,2.72c3.51,7.73,6.89,15.27,10.36,22.77c16.99,36.71,34.06,73.39,50.94,110.16
		c1.4,3.06,2.37,6.71,2.19,10.02c-0.32,6.06-5.46,9.79-12.89,9.9c-10.66,0.15-21.33,0.05-31.99,0.05c-8.16,0-16.34-0.23-24.49,0.06
		c-8.5,0.3-13.89-3.05-17.51-11.03c-18.71-41.24-37.85-82.28-56.65-123.47c-1.64-3.59-3.41-5.06-7.4-4.81
		c-5.94,0.37-11.92,0.1-18.64,0.1c0,2.42,0,4.34,0,6.27c0,39.16,0,78.31-0.02,117.47c-0.01,10.89-4.5,15.37-15.56,15.41
		c-17,0.06-33.99,0.07-50.99,0c-10.38-0.04-14.9-4.63-14.9-14.99c-0.01-65.98-0.01-131.97-0.01-197.95
		C1281.77,460.91,1281.77,459.29,1281.77,457.05z M1447.02,513.7c6.06-2.5,11.32-4.51,16.45-6.82
		c24.43-11.02,40.71-29.11,46.98-55.42c4.03-16.92,3.87-34.04,0.46-51.08c-5.35-26.69-20.42-45.78-45.1-57.33
		c-17.38-8.13-35.86-11.4-54.81-11.58c-35.99-0.35-71.99-0.14-107.98-0.14c-1.46,0-2.91,0.18-4.51,0.29c0,15.19,0,30.07,0,45.39
		c2.33,0,4.31,0,6.28,0c32.49,0,64.99-0.1,97.48,0.08c6.8,0.04,13.71,0.49,20.37,1.78c38.19,7.41,47.97,36.82,38.72,64.8
		c-2.12,6.41-7.08,12.5-12.18,17.16c-10.17,9.31-23.33,12.08-36.66,12.24c-35.99,0.43-71.99,0.27-107.98,0.34c-1.95,0-3.91,0-5.98,0
		c0,62.14,0,123.67,0,185.04c16.31,0,32.2,0,48.64,0c0-46.34,0-92.24,0-138.51c14.54,0,28.53,0.4,42.48-0.18
		c6.24-0.26,8.9,1.97,11.37,7.42c19.18,42.31,38.78,84.43,58.05,126.7c1.81,3.96,3.93,5.22,8.21,5.13
		c13.82-0.3,27.66-0.1,41.49-0.12c1.56,0,3.13-0.18,5.23-0.31C1491.57,609.99,1469.37,562.01,1447.02,513.7z"/>
	<path class="st2" d="M982.83,497.32c-4.93,14.06-9.37,26.72-13.8,39.38c-15.01,42.88-30.09,85.74-44.96,128.67
		c-2.28,6.59-6.46,9.98-13.21,10.01c-19.49,0.09-38.99,0.28-58.47-0.13c-10.62-0.22-15-7.66-11.17-17.55
		c42.68-110.19,85.36-220.39,128.05-330.58c0.36-0.93,0.8-1.83,1.11-2.78c1.98-5.89,6.06-9.04,12.26-9.22
		c6.01-0.17,10.16,2.94,12.66,9.36c12.98,33.35,25.93,66.71,38.89,100.06c29.73,76.48,59.18,153.07,89.43,229.35
		c6.19,15.62-1.65,22.27-14.97,21.75c-16.8-0.66-33.65-0.13-50.47-0.17c-9.91-0.02-12.86-2.11-16.18-11.48
		c-18.64-52.54-37.26-105.1-55.89-157.64C985.21,503.87,984.29,501.38,982.83,497.32z M1107.51,658.79
		c-41.58-106.97-82.91-213.31-124.7-320.81c-41.69,107.62-82.84,213.84-124.29,320.83c2.62,0,4.24,0,5.86,0c13,0,26-0.19,38.99,0.11
		c4.23,0.1,5.99-1.32,7.35-5.24c23.17-66.63,46.5-133.22,69.8-199.8c0.52-1.49,1.2-2.93,2.2-5.35c1,2.26,1.67,3.53,2.15,4.87
		c10.7,30.1,21.39,60.21,32.06,90.33c13.11,37.02,26.17,74.05,39.37,111.03c0.56,1.56,2.29,3.84,3.5,3.86
		C1075.43,658.87,1091.06,658.79,1107.51,658.79z"/>
	<path class="st2" d="M453.01,393.35c0,20.99,0,41.07,0,61.78c2.18,0,4.12,0,6.06,0c38.99,0,77.99,0,116.98,0
		c12.4,0,16.59,4.15,16.6,16.42c0.01,15.66,0.02,31.33-0.01,46.99c-0.02,10.44-4.85,15.29-15.31,15.3
		c-39.33,0.03-78.65,0.01-117.98,0.01c-1.97,0-3.94,0-6.53,0c0,47.27,0,94.14,0,141.37c-2.23,0.11-3.85,0.26-5.48,0.26
		c-20.16,0.02-40.33,0.03-60.49,0c-11.76-0.02-16.02-4.28-16.02-15.88c0-109.65,0-219.29,0-328.94c0-11.46,4.2-15.7,15.61-15.7
		c52.66-0.01,105.31-0.01,157.97-0.01c1.65,0,3.3,0,5.4,0c0,26.14,0,52.01,0,78.4C517.74,393.35,485.64,393.35,453.01,393.35z
		 M436.85,517.65c46.81,0,92.9,0,139.17,0c0-15.68,0-30.87,0-46.55c-46.51,0-92.58,0-138.89,0c0-31.37,0-62.25,0-93.72
		c32.37,0,64.43,0,96.57,0c0-15.78,0-30.98,0-45.96c-49.15,0-97.87,0-146.57,0c0,109.34,0,218.26,0,327.3c16.64,0,33,0,49.73,0
		C436.85,611.7,436.85,565.09,436.85,517.65z"/>
	<path class="st2" d="M1155.39,489.17c10.09-28.15,19.75-55.09,29.4-82.03c2.92-8.15,5.69-16.36,8.87-24.4
		c0.6-1.53,2.82-3.43,4.3-3.44c25.99-0.21,51.98-0.15,77.97-0.13c0.61,0,1.22,0.19,2.17,0.35c-0.5,1.65-0.83,3.08-1.35,4.43
		c-36.22,93.6-72.43,187.21-108.84,280.74c-1.4,3.59-4.19,7.47-7.42,9.34c-7.08,4.11-14.64,0.32-17.83-7.97
		c-22.88-59.5-45.75-119.01-68.61-178.51c-19.7-51.27-39.38-102.55-59.09-153.82c-4.55-11.82,0.19-18.73,13.02-18.76
		c17.83-0.04,35.65-0.03,53.48,0c9.37,0.02,12.25,2.14,15.42,11.01c18.7,52.35,37.41,104.7,56.13,157.05
		C1153.61,484.71,1154.3,486.37,1155.39,489.17z M1254.49,395.76c-2.77,0-4.57,0-6.38,0c-11.83,0-23.66,0.22-35.48-0.11
		c-4.7-0.13-6.92,1.26-8.55,5.87c-15.34,43.47-30.96,86.85-46.5,130.24c-0.56,1.57-1.26,3.1-2.33,5.7c-1.1-2.79-1.74-4.28-2.29-5.82
		c-23.34-65.18-46.7-130.35-69.92-195.57c-1.25-3.52-2.77-4.94-6.66-4.86c-13.16,0.26-26.32,0.09-39.48,0.11
		c-1.54,0-3.09,0.2-5.19,0.34c41.15,107.05,82.02,213.37,123.4,321C1188.48,566.39,1221.34,481.46,1254.49,395.76z"/>
	<path class="st2" d="M694.83,545.07c-27.28,0-54.19,0-81.75,0c0-2,0-3.78,0-5.56c0-69.64,0-139.29,0-208.93
		c0-11.02,4.49-15.61,15.32-15.63c17.83-0.03,35.66-0.07,53.48,0.03c8.17,0.04,13.17,4.94,13.18,13.08
		c0.05,71.48,0.03,142.95,0.02,214.43C695.09,543.14,694.96,543.79,694.83,545.07z M630.09,331.61c0,65.9,0,131.29,0,196.83
		c16.38,0,32.39,0,48.29,0c0-65.82,0-131.21,0-196.83C662.26,331.61,646.49,331.61,630.09,331.61z"/>
	<path class="st2" d="M613.09,595.14c2.37,0,4.16,0,5.95,0c61.45,0,122.91,0,184.36,0c12.23,0,16.56,4.32,16.57,16.47
		c0.01,16.49,0.02,32.98-0.01,49.46c-0.02,9.4-4.68,14.37-13.99,14.38c-59.46,0.07-118.91,0.08-178.37-0.01
		c-9.97-0.01-14.49-4.93-14.5-14.98C613.07,638.99,613.09,617.51,613.09,595.14z M629.78,658.46c58.19,0,115.58,0,173.59,0
		c0-2.32,0-4.28,0-6.24c0-11.16,0.01-22.33,0-33.49c-0.01-6.84-0.02-6.85-6.78-6.85c-53.32,0-106.64,0-159.96,0
		c-1.17,0-2.54-0.37-3.45,0.11c-1.31,0.7-3.24,2.01-3.26,3.08C629.7,629.37,629.78,643.68,629.78,658.46z"/>
</g>
</svg>
